<svg width="36" height="36" viewBox="0 0 36 36" fill="none" xmlns="http://www.w3.org/2000/svg">
<path d="M34.015 1.9874C31.3653 -0.662271 27.0766 -0.662665 24.4266 1.9874L2.53788 23.8762C2.38439 24.0294 2.26692 24.238 2.21828 24.462L0.0292462 34.5671C-0.0558965 34.96 0.0644859 35.3694 0.348847 35.6536C0.633444 35.9383 1.04308 36.0582 1.43536 35.9732L11.5405 33.7841C11.7667 33.7352 11.9746 33.6163 12.1264 33.4645L34.0151 11.5758C36.6585 8.93229 36.6585 4.63101 34.015 1.9874ZM2.72953 33.273L4.07077 27.0814L8.92106 31.9316L2.72953 33.273ZM11.2902 30.956L5.04644 24.7123L24.2026 5.55615L30.4463 11.7999L11.2902 30.956ZM32.3427 9.90347L32.1187 10.1275L25.875 3.88372L26.099 3.65967C27.8227 1.936 30.6171 1.93419 32.3427 3.65967C34.064 5.38113 34.064 8.18209 32.3427 9.90347Z" fill="url(#paint0_linear_41_2096)"/>
<defs>
<linearGradient id="paint0_linear_41_2096" x1="18" y1="0" x2="18" y2="36" gradientUnits="userSpaceOnUse">
<stop stop-color="#280F71"/>
<stop offset="1" stop-color="#A32A8D"/>
</linearGradient>
</defs>
</svg>
