<svg width="41" height="36" viewBox="0 0 41 36" fill="none" xmlns="http://www.w3.org/2000/svg">
<path d="M31.1921 1.17583C31.0728 0.808253 30.8121 0.503231 30.468 0.327796C30.1234 0.152166 29.7237 0.120886 29.356 0.240369L23.2602 2.22126C22.4949 2.46994 22.0759 3.29194 22.3247 4.05721L22.6294 4.9952L7.12362 16.3849L1.00707 18.3722C0.639495 18.4917 0.334474 18.7522 0.159039 19.0965C-0.016397 19.4408 -0.0478705 19.8408 0.0716122 20.2084L3.78801 31.6441C3.98812 32.2598 4.55931 32.6513 5.17343 32.6513C5.32283 32.6513 5.47456 32.6282 5.62416 32.5796L11.7397 30.5923L14.8818 30.6088C15.5129 33.5883 18.1629 35.8311 21.3273 35.8311C24.4677 35.8311 27.1002 33.6219 27.757 30.6766L30.9796 30.6935L31.2842 31.6317C31.4035 31.9993 31.664 32.3043 32.0085 32.4797C32.2152 32.585 32.4421 32.6385 32.67 32.6385C32.8215 32.6385 32.9737 32.6147 33.1201 32.5671L39.2161 30.5865C39.9814 30.3378 40.4004 29.5158 40.1518 28.7505L31.1921 1.17583ZM6.10908 29.3576L3.29357 20.6933L6.86134 19.534L9.67647 28.1984L6.10908 29.3576ZM21.3271 32.9169C19.79 32.9169 18.4723 31.9674 17.9247 30.6249L24.7163 30.6607C24.1601 31.9847 22.8508 32.9169 21.3271 32.9169ZM12.5728 27.6823L11.0403 22.9658L9.50783 18.2492L23.5775 7.91466L27.8922 21.1936L30.0305 27.7744L12.5728 27.6823ZM33.6053 29.3454L33.4263 28.795C33.4261 28.794 33.4259 28.7929 33.4256 28.7917L29.5759 16.9439L25.5465 4.54233L28.8708 3.46193L36.9296 28.2648L33.6053 29.3454Z" fill="url(#paint0_linear_41_2153)"/>
<defs>
<linearGradient id="paint0_linear_41_2153" x1="20.1118" y1="0.168945" x2="20.1118" y2="35.8311" gradientUnits="userSpaceOnUse">
<stop stop-color="#280F71"/>
<stop offset="1" stop-color="#A32A8D"/>
</linearGradient>
</defs>
</svg>
