<svg width="40" height="32" viewBox="0 0 40 32" fill="none" xmlns="http://www.w3.org/2000/svg">
<path d="M12.1312 29.8868L25.1312 0.886788C25.4701 0.13084 26.3576 -0.207265 27.1136 0.131608C27.8065 0.442241 28.1484 1.2139 27.9395 1.92262L27.8688 2.11395L14.8688 31.114C14.5299 31.8699 13.6424 32.208 12.8864 31.8691C12.1935 31.5585 11.8516 30.7868 12.0605 30.0781L12.1312 29.8868ZM0.43934 14.9397L8.93934 6.43971C9.52513 5.85392 10.4749 5.85392 11.0607 6.43971C11.5932 6.97224 11.6416 7.80557 11.2059 8.39279L11.0607 8.56103L3.62132 16.0004L11.0607 23.4397C11.6464 24.0255 11.6464 24.9752 11.0607 25.561C10.5281 26.0936 9.6948 26.142 9.10758 25.7063L8.93934 25.561L0.43934 17.061C-0.0931934 16.5285 -0.141605 15.6952 0.294104 15.1079L0.43934 14.9397ZM28.9393 6.43971C29.4719 5.90718 30.3052 5.85877 30.8924 6.29447L31.0607 6.43971L39.5607 14.9397C40.0932 15.4722 40.1416 16.3056 39.7059 16.8928L39.5607 17.061L31.0607 25.561C30.4749 26.1468 29.5251 26.1468 28.9393 25.561C28.4068 25.0285 28.3584 24.1952 28.7941 23.6079L28.9393 23.4397L36.3787 16.0004L28.9393 8.56103C28.3536 7.97524 28.3536 7.0255 28.9393 6.43971Z" fill="url(#paint0_linear_41_2018)"/>
<defs>
<linearGradient id="paint0_linear_41_2018" x1="20" y1="0" x2="20" y2="32.0007" gradientUnits="userSpaceOnUse">
<stop stop-color="#280F71"/>
<stop offset="1" stop-color="#A32A8D"/>
</linearGradient>
</defs>
</svg>
